# xmcd
#
# Track frame offsets:
#	150
#	12505
#	23255
#	34762
#	47350
#	58279
#	72827
#	85986
#	97800
#	107412
#	118956
#	129076
#	137095
#	148566
#	160762
#	172586
#	184059
#	195979
#	207198
#	225211
#	235178
#	245513
#	256230
#
# Disc length: 3552 seconds
#
# Revision: 1
# Processed by: cddbd v1.4PL0 Copyright (c) Steve Scherf et al.
# Submitted via: CDmax 1.8
#
DISCID=1c0dde17
DTITLE=Various Artist - Kick Up Yer Boot Heels #1
DYEAR=2003
DGENRE=Country
TTITLE0=Johnny Cash - I Walk the Line
TTITLE1=Dave Dudley - 6 Days on the Road
TTITLE2=Willie Nelson - On the Road Again
TTITLE3=Leon McAuliffe - Panhandle Rag
TTITLE4=Charlie Walker - Pick Me Up On Your Way Down
TTITLE5=Bob Dylan - Nashville Skyline Rag
TTITLE6=Charlie Walker - Lil' Ol' Wine Drinker Me
TTITLE7=Ernest Tubb and Loretta Lynn - I Reached for the Wine
TTITLE8=Tommy Hill - String Boogie Woogie
TTITLE9=Patsy Cline - Walkin' After Midnight
TTITLE10=Speedy West and Jimmy Bryant
TTITLE11=Texas Ruby - Big Silver Tears
TTITLE12=Speedy West and Jimmy Bryant - West of Somoa
TTITLE13=Floyd Tillman - Slippin' Around
TTITLE14=Rose Lee Maphis - I've Come to Take You Home
TTITLE15=Ray Price - Crazy Arms
TTITLE16=The Knitters - Someone Like You
TTITLE17=Patsy Cline - Stop the World and Let Me Off
TTITLE18=Lucky Pierres - Jacksboro Highway
TTITLE19=Kay Adams - Little Pink Mack
TTITLE20=Terry Fell - Truck-Drivin' Man
TTITLE21=Louvin Brothers - Tennessee Waltz
TTITLE22=Loretta Lynn - These Boots Are Made for Walkin'
EXTD=
EXTT0=
EXTT1=
EXTT2=
EXTT3=
EXTT4=
EXTT5=
EXTT6=
EXTT7=
EXTT8=
EXTT9=
EXTT10=
EXTT11=
EXTT12=
EXTT13=
EXTT14=
EXTT15=
EXTT16=
EXTT17=
EXTT18=
EXTT19=
EXTT20=
EXTT21=
EXTT22=
PLAYORDER=
